<svg width="163" height="95" viewBox="0 0 163 95" fill="none" xmlns="http://www.w3.org/2000/svg">
<mask id="path-1-outside-1_101_422" maskUnits="userSpaceOnUse" x="0" y="0" width="163" height="95" fill="black">
<rect fill="white" width="163" height="95"/>
<path d="M97 1.23199L92.968 19.088C96.04 20.624 99.304 23.984 102.76 29.168C106.024 34.352 107.944 40.016 108.52 46.16L88.936 49.328V93.392H161.8V66.608C161.8 48.944 156.712 34.256 146.536 22.544C136.168 10.832 119.656 3.72799 97 1.23199ZM9.73599 1.23199L5.70399 19.088C8.776 20.624 12.04 23.984 15.496 29.168C18.76 34.352 20.68 40.016 21.256 46.16L1.67199 49.328V93.392H74.536V66.608C74.536 48.944 69.448 34.256 59.272 22.544C48.904 10.832 32.392 3.72799 9.73599 1.23199Z"/>
</mask>
<path d="M97 1.23199L96.0246 1.01173L96.2214 0.14016L97.1095 0.238007L97 1.23199ZM92.968 19.088L92.5208 19.9824L91.82 19.632L91.9926 18.8677L92.968 19.088ZM102.76 29.168L103.592 28.6133L103.599 28.6241L103.606 28.6352L102.76 29.168ZM108.52 46.16L109.516 46.0667L109.603 46.9978L108.68 47.1472L108.52 46.16ZM88.936 49.328H87.936V48.4768L88.7763 48.3408L88.936 49.328ZM88.936 93.392V94.392H87.936V93.392H88.936ZM161.8 93.392H162.8V94.392H161.8V93.392ZM146.536 22.544L147.285 21.8811L147.291 21.8881L146.536 22.544ZM9.73599 1.23199L8.76054 1.01173L8.95735 0.14016L9.8455 0.238007L9.73599 1.23199ZM5.70399 19.088L5.25677 19.9824L4.55597 19.632L4.72855 18.8677L5.70399 19.088ZM15.496 29.168L16.328 28.6133L16.3353 28.6241L16.3422 28.6352L15.496 29.168ZM21.256 46.16L22.2516 46.0667L22.3389 46.9978L21.4157 47.1472L21.256 46.16ZM1.672 49.328H0.671997V48.4768L1.5123 48.3408L1.672 49.328ZM1.672 93.392V94.392H0.671997V93.392H1.672ZM74.536 93.392H75.536V94.392H74.536V93.392ZM59.272 22.544L60.0208 21.8811L60.0269 21.8881L59.272 22.544ZM97.9754 1.45226L93.9434 19.3083L91.9926 18.8677L96.0246 1.01173L97.9754 1.45226ZM93.4152 18.1936C96.7237 19.8478 100.107 23.3851 103.592 28.6133L101.928 29.7227C98.5014 24.5829 95.3563 21.4002 92.5208 19.9824L93.4152 18.1936ZM103.606 28.6352C106.954 33.9529 108.925 39.7677 109.516 46.0667L107.524 46.2533C106.963 40.2643 105.094 34.7511 101.914 29.7008L103.606 28.6352ZM108.68 47.1472L89.0957 50.3152L88.7763 48.3408L108.36 45.1728L108.68 47.1472ZM89.936 49.328V93.392H87.936V49.328H89.936ZM88.936 92.392H161.8V94.392H88.936V92.392ZM160.8 93.392V66.608H162.8V93.392H160.8ZM160.8 66.608C160.8 49.1495 155.777 34.7048 145.781 23.1999L147.291 21.8881C157.647 33.8072 162.8 48.7385 162.8 66.608H160.8ZM145.787 23.2068C135.645 11.7503 119.411 4.70704 96.8905 2.22598L97.1095 0.238007C119.901 2.74895 136.691 9.91373 147.285 21.8812L145.787 23.2068ZM10.7114 1.45226L6.67943 19.3083L4.72855 18.8677L8.76054 1.01173L10.7114 1.45226ZM6.1512 18.1936C9.45973 19.8478 12.8426 23.3851 16.328 28.6133L14.6639 29.7227C11.2374 24.5829 8.09227 21.4002 5.25677 19.9824L6.1512 18.1936ZM16.3422 28.6352C19.6904 33.9529 21.6611 39.7677 22.2516 46.0667L20.2604 46.2533C19.6989 40.2643 17.8295 34.7511 14.6497 29.7008L16.3422 28.6352ZM21.4157 47.1472L1.83168 50.3152L1.5123 48.3408L21.0963 45.1728L21.4157 47.1472ZM2.672 49.328V93.392H0.671997V49.328H2.672ZM1.672 92.392H74.536V94.392H1.672V92.392ZM73.536 93.392V66.608H75.536V93.392H73.536ZM73.536 66.608C73.536 49.1495 68.5132 34.7048 58.5171 23.1999L60.0269 21.8881C70.3828 33.8072 75.536 48.7385 75.536 66.608H73.536ZM58.5232 23.2068C48.3813 11.7503 32.1469 4.70704 9.62648 2.22598L9.8455 0.238007C32.6371 2.74895 49.4266 9.91373 60.0208 21.8812L58.5232 23.2068Z" fill="#FF9142" mask="url(#path-1-outside-1_101_422)"/>
</svg>
